<mxfile host="app.diagrams.net" modified="2024-04-18T14:20:37.485Z" agent="Mozilla/5.0 (Macintosh; Intel Mac OS X 10_15_7) AppleWebKit/537.36 (KHTML, like Gecko) Chrome/123.0.0.0 Safari/537.36" etag="w1dlackMsfUatMGZavEf" version="24.0.2" type="github">
  <diagram name="第 1 页" id="M7RkRhj3tJFe99-M-14d">
    <mxGraphModel dx="1026" dy="650" grid="1" gridSize="10" guides="1" tooltips="1" connect="1" arrows="1" fold="1" page="1" pageScale="1" pageWidth="827" pageHeight="1169" math="0" shadow="0">
      <root>
        <mxCell id="0" />
        <mxCell id="1" parent="0" />
        <mxCell id="kd1bP3O0un63Tg1PpUxd-1" value="" style="shape=singleArrow;whiteSpace=wrap;html=1;fillColor=#3272c8;fontColor=#ffffff;strokeColor=#001DBC;" vertex="1" parent="1">
          <mxGeometry x="100" y="260" width="530" height="60" as="geometry" />
        </mxCell>
        <mxCell id="kd1bP3O0un63Tg1PpUxd-3" value="" style="shape=singleArrow;direction=north;whiteSpace=wrap;html=1;fillColor=#3272c8;" vertex="1" parent="1">
          <mxGeometry x="150" y="101" width="80" height="180" as="geometry" />
        </mxCell>
        <mxCell id="kd1bP3O0un63Tg1PpUxd-4" value="2024-2025" style="text;html=1;align=center;verticalAlign=middle;whiteSpace=wrap;rounded=0;fontFamily=Times New Roman;fontSize=20;" vertex="1" parent="1">
          <mxGeometry x="60" y="190" width="120" height="30" as="geometry" />
        </mxCell>
        <mxCell id="kd1bP3O0un63Tg1PpUxd-5" value="&lt;p style=&quot;margin: 1.7pt 0pt 0.0001pt; text-align: left; vertical-align: baseline; font-family: Arial; font-size: 10.5pt;&quot; class=&quot;MsoNormal&quot;&gt;&lt;span style=&quot;font-family: 宋体; letter-spacing: 0.65pt; font-size: 9.5pt;&quot;&gt;&lt;font face=&quot;宋体&quot;&gt;（&lt;/font&gt;1）&lt;/span&gt;&lt;span style=&quot;font-family: 宋体; letter-spacing: 0.65pt; font-size: 9.5pt;&quot;&gt;修读必修课程&lt;/span&gt;&lt;span style=&quot;font-family: 宋体; letter-spacing: 0.65pt; font-size: 9.5pt;&quot;&gt;，&lt;/span&gt;&lt;span style=&quot;font-family: 宋体; letter-spacing: 0.65pt; font-size: 9.5pt;&quot;&gt;完成学科专业要求课程&lt;/span&gt;&lt;span style=&quot;font-family: 宋体; letter-spacing: 0.65pt; font-size: 9.5pt;&quot;&gt;、&lt;/span&gt;&lt;span style=&quot;font-family: 宋体; letter-spacing: 0.65pt; font-size: 9.5pt;&quot;&gt;学术与职业素养课程等&lt;/span&gt;&lt;span style=&quot;font-family: 宋体; letter-spacing: 0.65pt; font-size: 9.5pt;&quot;&gt;，&lt;/span&gt;&lt;span style=&quot;font-family: 宋体; letter-spacing: 0.65pt; font-size: 9.5pt;&quot;&gt;参加学术活动&lt;/span&gt;&lt;span style=&quot;font-family: 宋体; letter-spacing: 0.65pt; font-size: 9.5pt;&quot;&gt;;&lt;/span&gt;&lt;span style=&quot;font-family: 宋体; letter-spacing: 0.65pt; font-size: 9.5pt;&quot;&gt;&lt;/span&gt;&lt;/p&gt;&lt;p style=&quot;margin: 1.7pt 0pt 0.0001pt; text-align: left; vertical-align: baseline; font-family: Arial; font-size: 10.5pt;&quot; class=&quot;MsoNormal&quot;&gt;&lt;span style=&quot;font-family: 宋体; letter-spacing: 0.65pt; font-size: 9.5pt;&quot;&gt;&lt;font face=&quot;宋体&quot;&gt;（&lt;/font&gt;2）&lt;/span&gt;&lt;span style=&quot;font-family: 宋体; letter-spacing: 0.65pt; font-size: 9.5pt;&quot;&gt;&lt;font face=&quot;宋体&quot;&gt;每周参与组会，并做汇报，及时与老师进行沟通，讨论&lt;/font&gt;&lt;font face=&quot;宋体&quot;&gt;idea&lt;/font&gt;&lt;/span&gt;&lt;span style=&quot;font-family: 宋体; letter-spacing: 0.65pt; font-size: 9.5pt;&quot;&gt;；&lt;/span&gt;&lt;span style=&quot;font-family: 宋体; letter-spacing: 0.65pt; font-size: 9.5pt;&quot;&gt;&lt;/span&gt;&lt;/p&gt;&lt;p style=&quot;margin: 1.7pt 0pt 0.0001pt; text-align: left; vertical-align: baseline; font-family: Arial; font-size: 10.5pt;&quot; class=&quot;MsoNormal&quot;&gt;&lt;span style=&quot;font-family: 宋体; letter-spacing: 0.65pt; font-size: 9.5pt;&quot;&gt;&lt;font face=&quot;宋体&quot;&gt;（&lt;/font&gt;3）&lt;/span&gt;&lt;span style=&quot;font-family: 宋体; letter-spacing: 0.65pt; font-size: 9.5pt;&quot;&gt;&lt;font face=&quot;宋体&quot;&gt;持续关于&lt;/font&gt;&lt;font face=&quot;宋体&quot;&gt;NLU的工作，目前已经初步完成了论文的撰写，后续跟进修改并投稿直到录用&lt;/font&gt;&lt;/span&gt;&lt;span style=&quot;font-family: 宋体; letter-spacing: 0.65pt; font-size: 9.5pt;&quot;&gt;；&lt;/span&gt;&lt;span style=&quot;font-family: 宋体; letter-spacing: 0.65pt; font-size: 9.5pt;&quot;&gt;&lt;/span&gt;&lt;/p&gt;&lt;p style=&quot;margin: 1.7pt 0pt 0.0001pt; text-align: left; vertical-align: baseline; font-family: Arial; font-size: 10.5pt;&quot; class=&quot;MsoNormal&quot;&gt;&lt;span style=&quot;font-family: 宋体; letter-spacing: 0.65pt; font-size: 9.5pt;&quot;&gt;&lt;font face=&quot;宋体&quot;&gt;（&lt;/font&gt;4）&lt;/span&gt;&lt;span style=&quot;font-family: 宋体; letter-spacing: 0.65pt; font-size: 9.5pt;&quot;&gt;&lt;font face=&quot;宋体&quot;&gt;持续学习&lt;/font&gt;&lt;font face=&quot;宋体&quot;&gt;NLP的相关知识，重点先攻克对话系统相关的难度，争取再有一篇论文的产出。&lt;/font&gt;&lt;/span&gt;&lt;span style=&quot;font-family: 宋体; letter-spacing: 0.65pt; font-size: 9.5pt;&quot;&gt;&lt;/span&gt;&lt;/p&gt;" style="text;html=1;align=center;verticalAlign=middle;whiteSpace=wrap;rounded=0;" vertex="1" parent="1">
          <mxGeometry x="270" y="110" width="530" height="50" as="geometry" />
        </mxCell>
      </root>
    </mxGraphModel>
  </diagram>
</mxfile>
